<svg width="1600" height="900" viewBox="0 0 1600 900" fill="none" xmlns="http://www.w3.org/2000/svg">
<rect width="1600" height="900" fill="#1A1A1A"/>
<path d="M583.155 395C575.555 395 567.955 396.2 560.355 398.6C552.755 401 545.855 404.5 539.655 409.1C533.655 413.5 528.755 419 524.955 425.6C521.155 432.2 519.255 439.7 519.255 448.1C519.255 456.5 521.155 464 524.955 470.6C528.755 477.2 533.655 482.8 539.655 487.4C545.855 491.8 552.755 495.2 560.355 497.6C567.955 500 575.555 501.2 583.155 501.2C590.755 501.2 598.355 500 605.955 497.6C613.555 495.2 620.355 491.8 626.355 487.4C632.555 482.8 637.555 477.2 641.355 470.6C645.155 464 647.055 456.5 647.055 448.1C647.055 439.7 645.155 432.2 641.355 425.6C637.555 419 632.555 413.5 626.355 409.1C620.355 404.5 613.555 401 605.955 398.6C598.355 396.2 590.755 395 583.155 395ZM583.155 367.4C594.155 367.4 605.355 369.1 616.755 372.5C628.155 375.7 638.555 380.6 647.955 387.2C657.355 393.8 665.055 402.2 671.055 412.4C677.055 422.4 680.055 434.3 680.055 448.1C680.055 461.9 677.055 473.9 671.055 484.1C665.055 494.1 657.355 502.4 647.955 509C638.555 515.6 628.155 520.4 616.755 523.4C605.355 526.4 594.155 527.9 583.155 527.9C572.155 527.9 560.955 526.4 549.555 523.4C538.155 520.4 527.755 515.6 518.355 509C508.955 502.4 501.255 494.1 495.255 484.1C489.255 473.9 486.255 461.9 486.255 448.1C486.255 434.3 489.255 422.4 495.255 412.4C501.255 402.2 508.955 393.8 518.355 387.2C527.755 380.6 538.155 375.7 549.555 372.5C560.955 369.1 572.155 367.4 583.155 367.4ZM727.251 521.6C731.051 521.6 732.951 519.8 732.951 516.2V380C732.951 376.4 731.051 374.6 727.251 374.6V369.2H778.551V374.6C776.951 374.6 776.151 375.6 776.151 377.6C776.151 379.2 778.151 382 782.151 386L868.251 475.4V380C868.251 376.4 865.651 374.6 860.451 374.6V369.2H905.751V374.6C901.951 374.6 900.051 376.4 900.051 380V516.2C900.051 519.8 901.951 521.6 905.751 521.6V527H857.151V521.6C859.751 521.6 861.051 520.7 861.051 518.9C861.051 517.5 859.451 515.2 856.251 512L764.751 416.6V516.2C764.751 519.8 767.051 521.6 771.651 521.6V527H727.251V521.6ZM1107.45 401.6C1107.45 399.4 1106.55 397.8 1104.75 396.8C1103.15 395.6 1100.25 395 1096.05 395H998.847V432.2H1057.65C1061.65 432.2 1064.75 431.7 1066.95 430.7C1069.15 429.5 1070.25 426.6 1070.25 422H1075.65V468.8H1070.25C1070.25 464.2 1069.15 461.3 1066.95 460.1C1064.75 458.7 1061.65 458 1057.65 458H998.847V499.4H1099.05C1102.05 499.4 1104.45 498.7 1106.25 497.3C1108.25 495.9 1109.25 494 1109.25 491.6H1114.65V532.7H1109.25C1109.25 529.7 1108.25 528 1106.25 527.6C1104.45 527.2 1102.05 527 1099.05 527H959.247V521.6C960.647 521.6 961.847 521.2 962.847 520.4C964.047 519.4 964.647 518 964.647 516.2V380C964.647 378.2 964.047 376.9 962.847 376.1C961.847 375.1 960.647 374.6 959.247 374.6V369.2H1096.05C1100.25 369.2 1103.15 368.6 1104.75 367.4C1106.55 366 1107.45 364.2 1107.45 362H1112.85V401.6H1107.45Z" fill="url(#paint0_linear_1_2)"/>
<path d="M736.6 286.4C739.733 286.4 742.467 286.133 744.8 285.6C747.133 285.067 749.067 284.133 750.6 282.8C752.133 281.4 753.267 279.567 754 277.3C754.8 275.033 755.2 272.167 755.2 268.7C755.2 265.233 754.8 262.367 754 260.1C753.267 257.833 752.133 256.033 750.6 254.7C749.067 253.3 747.133 252.333 744.8 251.8C742.467 251.267 739.733 251 736.6 251H721.1V286.4H736.6ZM740.6 242.4C744.267 242.4 747.667 242.933 750.8 244C754 245.067 756.767 246.7 759.1 248.9C761.433 251.033 763.267 253.767 764.6 257.1C765.933 260.367 766.6 264.233 766.6 268.7C766.6 273.167 765.933 277.067 764.6 280.4C763.267 283.667 761.433 286.4 759.1 288.6C756.767 290.733 754 292.333 750.8 293.4C747.667 294.467 744.267 295 740.6 295H707.4V293.2C708.933 293.2 709.7 292.6 709.7 291.4V246C709.7 244.8 708.933 244.2 707.4 244.2V242.4H740.6ZM811.968 274.6L803.568 256L794.168 274.6H811.968ZM774.268 293.2C775.135 293.067 775.801 292.633 776.268 291.9C776.801 291.167 777.301 290.333 777.768 289.4L796.268 250.5C796.735 249.633 797.135 248.833 797.468 248.1C797.868 247.367 798.068 246.733 798.068 246.2C798.068 245.533 797.835 245.067 797.368 244.8C796.901 244.533 796.401 244.333 795.868 244.2V242.4H812.768V244.2C812.301 244.333 811.835 244.533 811.368 244.8C810.901 245 810.668 245.467 810.668 246.2C810.668 246.733 810.768 247.267 810.968 247.8C811.235 248.333 811.601 249.033 812.068 249.9L832.868 290.6C833.201 291.333 833.635 291.867 834.168 292.2C834.768 292.533 835.435 292.867 836.168 293.2V295H818.568V293.2C818.835 293.2 819.168 293.1 819.568 292.9C819.968 292.7 820.168 292.4 820.168 292C820.168 291.333 819.901 290.467 819.368 289.4L815.568 282H791.168L787.568 289.1C786.901 290.5 786.568 291.5 786.568 292.1C786.568 292.833 787.201 293.2 788.468 293.2V295H774.268V293.2ZM860.767 242.4V244.2C860.167 244.2 859.601 244.3 859.067 244.5C858.534 244.633 858.267 245.033 858.267 245.7C858.267 246.1 858.734 247.067 859.667 248.6C860.667 250.067 861.801 251.767 863.067 253.7C864.401 255.567 865.767 257.5 867.167 259.5C868.567 261.5 869.701 263.2 870.567 264.6L882.267 248.5C882.801 247.7 883.234 247.067 883.567 246.6C883.901 246.133 884.067 245.7 884.067 245.3C884.067 244.833 883.734 244.533 883.067 244.4C882.467 244.267 881.901 244.2 881.367 244.2V242.4H898.867V244.2C898.334 244.2 897.834 244.267 897.367 244.4C896.901 244.467 896.401 244.7 895.867 245.1C895.401 245.433 894.867 245.967 894.267 246.7C893.734 247.367 893.067 248.3 892.267 249.5L875.267 273.6V291.4C875.267 292.6 876.034 293.2 877.567 293.2V295H861.767V293.2C862.367 293.2 862.867 293.067 863.267 292.8C863.667 292.467 863.867 292 863.867 291.4V273.6L844.567 246.6C844.101 245.933 843.367 245.367 842.367 244.9C841.434 244.433 840.634 244.2 839.967 244.2V242.4H860.767Z" fill="white"/>
<path d="M586.268 658.8C586.068 658.8 585.868 658.8 585.668 658.8C585.535 658.733 585.368 658.7 585.168 658.7C584.768 658.7 583.801 659.1 582.268 659.9C580.801 660.7 578.901 661.6 576.568 662.6C574.301 663.6 571.701 664.467 568.768 665.2C565.835 665.933 562.768 666.3 559.568 666.3C555.368 666.3 551.335 665.767 547.468 664.7C543.601 663.633 540.168 662 537.168 659.8C534.235 657.533 531.901 654.733 530.168 651.4C528.435 648.067 527.568 644.167 527.568 639.7C527.568 635.3 528.435 631.433 530.168 628.1C531.901 624.7 534.235 621.867 537.168 619.6C540.168 617.333 543.601 615.633 547.468 614.5C551.335 613.367 555.368 612.8 559.568 612.8C562.968 612.8 566.035 613.067 568.768 613.6C571.568 614.133 574.001 614.7 576.068 615.3C578.135 615.9 579.768 616.467 580.968 617C582.168 617.533 582.901 617.8 583.168 617.8C583.501 617.8 583.768 617.633 583.968 617.3C584.235 616.967 584.435 616.7 584.568 616.5L586.068 617.7L578.268 629.8L577.268 629.1C577.268 628.9 577.235 628.7 577.168 628.5C577.168 628.3 577.135 628.067 577.068 627.8C576.935 627.067 576.268 626.333 575.068 625.6C573.868 624.8 572.368 624.1 570.568 623.5C568.835 622.9 566.968 622.4 564.968 622C563.035 621.6 561.235 621.4 559.568 621.4C556.768 621.4 554.068 621.8 551.468 622.6C548.935 623.4 546.701 624.567 544.768 626.1C542.901 627.633 541.401 629.533 540.268 631.8C539.135 634 538.568 636.533 538.568 639.4C538.568 642.267 539.135 644.833 540.268 647.1C541.401 649.3 542.901 651.167 544.768 652.7C546.701 654.233 548.935 655.4 551.468 656.2C554.068 657 556.768 657.4 559.568 657.4C561.701 657.4 563.935 657.167 566.268 656.7C568.601 656.167 570.735 655.533 572.668 654.8C574.601 654 576.201 653.133 577.468 652.2C578.801 651.2 579.468 650.267 579.468 649.4C579.468 648.933 579.335 648.533 579.068 648.2L580.468 647.4L587.068 658L586.268 658.8ZM633.236 622C630.703 622 628.169 622.4 625.636 623.2C623.103 624 620.803 625.167 618.736 626.7C616.736 628.167 615.103 630 613.836 632.2C612.569 634.4 611.936 636.9 611.936 639.7C611.936 642.5 612.569 645 613.836 647.2C615.103 649.4 616.736 651.267 618.736 652.8C620.803 654.267 623.103 655.4 625.636 656.2C628.169 657 630.703 657.4 633.236 657.4C635.769 657.4 638.303 657 640.836 656.2C643.369 655.4 645.636 654.267 647.636 652.8C649.703 651.267 651.369 649.4 652.636 647.2C653.903 645 654.536 642.5 654.536 639.7C654.536 636.9 653.903 634.4 652.636 632.2C651.369 630 649.703 628.167 647.636 626.7C645.636 625.167 643.369 624 640.836 623.2C638.303 622.4 635.769 622 633.236 622ZM633.236 612.8C636.903 612.8 640.636 613.367 644.436 614.5C648.236 615.567 651.703 617.2 654.836 619.4C657.969 621.6 660.536 624.4 662.536 627.8C664.536 631.133 665.536 635.1 665.536 639.7C665.536 644.3 664.536 648.3 662.536 651.7C660.536 655.033 657.969 657.8 654.836 660C651.703 662.2 648.236 663.8 644.436 664.8C640.636 665.8 636.903 666.3 633.236 666.3C629.569 666.3 625.836 665.8 622.036 664.8C618.236 663.8 614.769 662.2 611.636 660C608.503 657.8 605.936 655.033 603.936 651.7C601.936 648.3 600.936 644.3 600.936 639.7C600.936 635.1 601.936 631.133 603.936 627.8C605.936 624.4 608.503 621.6 611.636 619.4C614.769 617.2 618.236 615.567 622.036 614.5C625.836 613.367 629.569 612.8 633.236 612.8ZM680.968 664.2C681.501 664.2 681.968 664.067 682.368 663.8C682.768 663.467 682.968 663 682.968 662.4V616.8C682.968 616.2 682.768 615.8 682.368 615.6C681.968 615.333 681.501 615.2 680.968 615.2V613.4H699.668V615.2C699.335 615.2 698.968 615.3 698.568 615.5C698.235 615.7 698.068 616 698.068 616.4C698.068 616.733 698.201 617.167 698.468 617.7C698.735 618.233 699.035 618.8 699.368 619.4L713.668 645.4L728.068 619.7C728.535 618.833 728.868 618.167 729.068 617.7C729.335 617.167 729.468 616.7 729.468 616.3C729.468 615.567 729.035 615.2 728.168 615.2V613.4H746.668V615.2C746.135 615.2 745.668 615.333 745.268 615.6C744.868 615.8 744.668 616.2 744.668 616.8V662.4C744.668 663 744.868 663.467 745.268 663.8C745.668 664.067 746.135 664.2 746.668 664.2V666H730.968V664.2C732.768 664.2 733.668 663.6 733.668 662.4V629.2H733.468L713.368 666H713.068L693.368 629.1H693.168V662.4C693.168 663.6 694.101 664.2 695.968 664.2V666H680.968V664.2ZM799.469 635.4C801.669 635.4 803.535 634.967 805.069 634.1C806.669 633.233 807.469 631.533 807.469 629C807.469 626.467 806.669 624.767 805.069 623.9C803.535 623.033 801.669 622.6 799.469 622.6H778.169V635.4H799.469ZM763.069 666V664.2C765.535 664.2 766.769 663.6 766.769 662.4V617C766.769 615.8 765.535 615.2 763.069 615.2V613.4H798.269C804.669 613.4 809.702 614.6 813.369 617C817.035 619.333 818.869 623.333 818.869 629C818.869 634.667 817.035 638.7 813.369 641.1C809.702 643.433 804.669 644.6 798.269 644.6H778.169V662.4C778.169 663.6 779.235 664.2 781.369 664.2V666H763.069ZM879.568 667.9C879.568 666.9 879.235 666.333 878.568 666.2C877.968 666.067 877.168 666 876.168 666H828.568V664.2C830.568 664.2 831.568 663.6 831.568 662.4V617C831.568 615.8 830.568 615.2 828.568 615.2V613.4H845.768V615.2C843.901 615.2 842.968 615.8 842.968 617V656.8H876.168C877.168 656.8 877.968 656.567 878.568 656.1C879.235 655.633 879.568 655 879.568 654.2H881.368V667.9H879.568ZM941.301 624.2C941.301 623.467 941.001 622.933 940.401 622.6C939.867 622.2 938.901 622 937.501 622H905.101V634.4H924.701C926.034 634.4 927.067 634.233 927.801 633.9C928.534 633.5 928.901 632.533 928.901 631H930.701V646.6H928.901C928.901 645.067 928.534 644.1 927.801 643.7C927.067 643.233 926.034 643 924.701 643H905.101V656.8H938.501C939.501 656.8 940.301 656.567 940.901 656.1C941.567 655.633 941.901 655 941.901 654.2H943.701V667.9H941.901C941.901 666.9 941.567 666.333 940.901 666.2C940.301 666.067 939.501 666 938.501 666H891.901V664.2C892.367 664.2 892.767 664.067 893.101 663.8C893.501 663.467 893.701 663 893.701 662.4V617C893.701 616.4 893.501 615.967 893.101 615.7C892.767 615.367 892.367 615.2 891.901 615.2V613.4H937.501C938.901 613.4 939.867 613.2 940.401 612.8C941.001 612.333 941.301 611.733 941.301 611H943.101V624.2H941.301ZM986.2 662.4C986.2 663.6 986.933 664.2 988.4 664.2V666H973V664.2C973.467 664.2 973.867 664.067 974.2 663.8C974.6 663.467 974.8 663 974.8 662.4V622.6H958.3C957.7 622.6 957.1 622.767 956.5 623.1C955.967 623.433 955.7 624.067 955.7 625H953.9V611H955.7C955.7 611.933 955.967 612.567 956.5 612.9C957.1 613.233 957.7 613.4 958.3 613.4H1002.7C1003.3 613.4 1003.87 613.233 1004.4 612.9C1005 612.567 1005.3 611.933 1005.3 611H1007.1V625H1005.3C1005.3 624.067 1005 623.433 1004.4 623.1C1003.87 622.767 1003.3 622.6 1002.7 622.6H986.2V662.4ZM1069.13 624.2C1069.13 623.467 1068.83 622.933 1068.23 622.6C1067.7 622.2 1066.73 622 1065.33 622H1032.93V634.4H1052.53C1053.87 634.4 1054.9 634.233 1055.63 633.9C1056.37 633.5 1056.73 632.533 1056.73 631H1058.53V646.6H1056.73C1056.73 645.067 1056.37 644.1 1055.63 643.7C1054.9 643.233 1053.87 643 1052.53 643H1032.93V656.8H1066.33C1067.33 656.8 1068.13 656.567 1068.73 656.1C1069.4 655.633 1069.73 655 1069.73 654.2H1071.53V667.9H1069.73C1069.73 666.9 1069.4 666.333 1068.73 666.2C1068.13 666.067 1067.33 666 1066.33 666H1019.73V664.2C1020.2 664.2 1020.6 664.067 1020.93 663.8C1021.33 663.467 1021.53 663 1021.53 662.4V617C1021.53 616.4 1021.33 615.967 1020.93 615.7C1020.6 615.367 1020.2 615.2 1019.73 615.2V613.4H1065.33C1066.73 613.4 1067.7 613.2 1068.23 612.8C1068.83 612.333 1069.13 611.733 1069.13 611H1070.93V624.2H1069.13Z" fill="white"/>
<path d="M42.801 63.115C42.5279 62.7024 42.1147 62.0546 41.5615 61.1716C41.0156 60.2525 40.387 59.232 39.6757 58.1101C38.9861 56.9739 38.2605 55.7833 37.4991 54.5385C36.7376 53.2937 36.0012 52.1103 35.2899 50.9885C34.6003 49.8522 33.9788 48.8426 33.4256 47.9596C32.8724 47.0766 32.4629 46.4107 32.1972 45.962C31.8375 45.513 31.7232 45.1515 31.8541 44.8775C31.985 44.6035 32.1807 44.3802 32.4413 44.2077C32.7236 44.0209 32.9769 43.8845 33.2011 43.7986C33.447 43.6983 33.714 43.7714 34.0021 44.0179L44.5627 61.1057C44.778 61.5253 44.6609 62.0089 44.2112 62.5563C43.7472 63.082 43.2772 63.2683 42.801 63.115ZM51.2706 34.5087C52.133 35.8117 52.1039 38.0325 51.1835 41.1714C50.9354 41.9289 50.7346 42.5927 50.581 43.1628C53.2808 41.4383 55.2937 41.0117 56.6198 41.8828C56.9152 42.0932 57.1636 42.3504 57.3648 42.6545C57.566 42.9585 57.7523 43.4286 57.9235 44.0647C58.1021 44.6648 58.1607 45.4848 58.0995 46.5247C58.0383 47.5645 57.8541 48.6545 57.547 49.7947C56.8963 52.1616 55.8857 54.1734 54.5151 55.83C54.0437 56.3919 53.6235 56.7949 53.2543 57.0393C52.9069 57.2693 52.6174 57.4452 52.3858 57.5673C52.1687 57.711 51.8975 57.7968 51.5724 57.8246C51.2473 57.8524 50.9841 57.7143 50.7829 57.4103C52.1385 55.9197 53.1837 54.3847 53.9184 52.8054C54.6531 51.226 55.1057 49.7866 55.2761 48.4871C55.4475 46.9059 55.3104 45.7787 54.8648 45.1055C54.4193 44.4323 53.9111 44.1128 53.3404 44.147C52.7697 44.1813 52.1586 44.414 51.5071 44.8452C49.8567 45.9376 48.0547 48.0984 46.1011 51.3277L43.9908 50.6165C48.5584 43.2211 50.4039 38.8611 49.5271 37.5365C49.1534 36.9719 48.2901 37.0123 46.9373 37.6579C45.6561 38.5059 44.334 39.6933 42.9711 41.22C41.6299 42.7323 40.5788 43.8808 39.8178 44.6656C39.0568 45.4503 38.2094 46.1517 37.2757 46.7698C36.6001 45.7491 36.4546 44.9866 36.839 44.4823C37.6074 43.6615 38.4156 42.783 39.2638 41.8469C42.0475 38.7865 44.4382 36.5951 46.4361 35.2727C48.4556 33.936 50.0671 33.6813 51.2706 34.5087ZM63.1644 44.9055C63.7724 44.5031 64.3064 44.6493 64.7664 45.3442C65.2263 46.0391 65.6788 46.817 66.1237 47.678C66.576 48.5029 66.9306 49.3925 67.1874 50.3467C67.7436 52.5082 67.4592 54.414 66.3342 56.0643C64.069 48.7257 63.0124 45.0061 63.1644 44.9055ZM57.8306 39.395C57.6428 39.3943 57.4664 39.2457 57.3012 38.949C57.1217 38.6306 57.0867 38.2946 57.1963 37.9411C57.3058 37.5875 57.4908 37.3245 57.7514 37.1521C58.0337 36.9652 58.3481 36.8976 58.6946 36.9493C59.0412 37.001 59.3187 37.1609 59.5273 37.4288C59.9802 38.0659 60.0003 38.521 59.5877 38.7941C58.9146 39.2397 58.3289 39.44 57.8306 39.395ZM70.843 111.71C70.5699 111.297 70.1567 110.649 69.6035 109.766C69.0576 108.847 68.429 107.827 67.7177 106.705C67.0281 105.569 66.3025 104.378 65.5411 103.133C64.7796 101.889 64.0432 100.705 63.3318 99.5833C62.6422 98.4471 62.0208 97.4375 61.4676 96.5545C60.9144 95.6715 60.5049 95.0056 60.2392 94.5569C59.8795 94.1079 59.7651 93.7464 59.8961 93.4724C60.027 93.1983 60.2227 92.9751 60.4833 92.8026C60.7656 92.6158 61.0189 92.4794 61.2431 92.3934C61.489 92.2931 61.756 92.3663 62.0441 92.6128L72.6047 109.701C72.82 110.12 72.7029 110.604 72.2532 111.151C71.7892 111.677 71.3191 111.863 70.843 111.71ZM87.7981 101.94C87.3421 102.241 86.9953 102.284 86.7577 102.066L82.6191 95.5304L80.2412 97.1043L76.3108 99.6589L73.9655 101.211C73.6832 101.398 73.3721 101.541 73.0323 101.641C72.6925 101.741 72.4005 101.607 72.1561 101.238C72.3297 98.9993 72.4634 96.7715 72.5575 94.5544C72.8913 87.5568 73.6988 83.6339 74.98 82.7859C76.4132 81.8372 78.7972 83.8819 82.1318 88.92C82.563 89.5715 83.0121 90.2736 83.4791 91.0263L90.6132 86.1638C90.9869 86.7284 91.184 87.1913 91.2044 87.5525C91.2466 87.8993 91.2206 88.1195 91.1264 88.2131L85.4237 92.6903C85.6802 93.7385 86.1281 94.8161 86.7672 95.9233C87.8085 97.7325 88.7172 99.2234 89.4934 100.396L87.7981 101.94ZM76.4313 86.1817C76.3848 87.1494 76.2225 88.1781 75.9444 89.2678C75.6737 90.3214 75.421 91.3787 75.1863 92.4397C74.9373 93.4789 74.7606 94.4859 74.6563 95.4606C74.5519 96.4354 74.6574 97.3024 74.9727 98.0619C75.1247 97.9612 75.4613 97.7385 75.9824 97.3935C76.5036 97.0485 77.2169 96.4984 78.1222 95.743C79.0132 94.9659 80.0019 94.1241 81.0883 93.2177L76.4313 86.1817ZM96.9393 89.7058C97.5474 89.3034 98.0814 89.4496 98.5413 90.1445C99.0013 90.8394 99.4537 91.6174 99.8987 92.4783C100.351 93.3032 100.706 94.1928 100.962 95.147C101.519 97.3085 101.234 99.2143 100.109 100.865C97.8439 93.526 96.7873 89.8065 96.9393 89.7058ZM91.6056 84.1953C91.4178 84.1947 91.2413 84.046 91.0762 83.7493C90.8967 83.4309 90.8617 83.095 90.9712 82.7414C91.0807 82.3879 91.2658 82.1249 91.5264 81.9524C91.8087 81.7655 92.1231 81.6979 92.4696 81.7497C92.8161 81.8014 93.0937 81.9612 93.3022 82.2291C93.7551 82.8662 93.7753 83.3213 93.3627 83.5944C92.6895 84.04 92.1038 84.2403 91.6056 84.1953Z" fill="white"/>
<rect x="747" y="332" width="5" height="5" fill="#011010"/>
<rect x="740" y="332" width="5" height="5" fill="#011000"/>
<rect x="767" y="332" width="5" height="5" fill="#011010"/>
<rect x="780" y="332" width="5" height="5" fill="#100000"/>
<rect x="793" y="332" width="5" height="5" fill="#110110"/>
<rect x="835" y="332" width="5" height="5" fill="#011010"/>
<rect x="828" y="332" width="5" height="5" fill="#101110"/>
<rect x="821" y="332" width="5" height="5" fill="#100100"/>
<rect x="814" y="332" width="5" height="5" fill="#101000"/>
<rect x="869" y="332" width="5" height="5" fill="#100100"/>
<rect x="862" y="332" width="5" height="5" fill="#110010"/>
<rect x="855" y="332" width="5" height="5" fill="#100000"/>
<rect x="848" y="332" width="5" height="5" fill="#111100"/>
<rect x="807" y="332" width="5" height="5" fill="#110010"/>
<rect x="800" y="332" width="5" height="5" fill="#100011"/>
<rect x="760" y="332" width="5" height="5" fill="#011000"/>
<rect x="733" y="332" width="5" height="5" fill="#101100"/>
<rect x="726" y="332" width="5" height="5" fill="#011110"/>
<defs>
<linearGradient id="paint0_linear_1_2" x1="491" y1="312.5" x2="1178" y2="560" gradientUnits="userSpaceOnUse">
<stop stop-color="#934180"/>
<stop offset="1" stop-color="#E0D139"/>
</linearGradient>
</defs>
</svg>
